<svg xmlns="http://www.w3.org/2000/svg" viewBox="0 0 32 32" fill="none">
  <!-- Microphone body -->
  <path d="M16 4a4 4 0 0 0-4 4v8a4 4 0 0 0 8 0V8a4 4 0 0 0-4-4z" fill="#dc2626"/>
  
  <!-- Microphone stand -->
  <path d="M24 16v2a8 8 0 0 1-16 0v-2" fill="#dc2626"/>
  
  <!-- Base -->
  <rect x="12" y="26" width="8" height="2" fill="#dc2626"/>
  <rect x="14" y="28" width="4" height="2" fill="#dc2626"/>
  
  <!-- Sound waves -->
  <path d="M28 16a2 2 0 0 1-2 2" stroke="#dc2626" stroke-width="2" stroke-linecap="round"/>
  <path d="M32 16a2 2 0 0 1-2 2" stroke="#dc2626" stroke-width="2" stroke-linecap="round"/>
  <path d="M-4 16a2 2 0 0 1 2 2" stroke="#dc2626" stroke-width="2" stroke-linecap="round"/>
  <path d="M-8 16a2 2 0 0 1 2 2" stroke="#dc2626" stroke-width="2" stroke-linecap="round"/>
</svg>
